<?xml version="1.0" encoding="UTF-8"?><svg xmlns="http://www.w3.org/2000/svg" viewBox="0 0 558.64 79.34"><defs><style>.d{fill:#fff;}.e{fill:#5dff99;}</style></defs><g id="a"/><g id="b"><g id="c"><g><path class="e" d="M30.24,28.44L7.07,43.57l23.17,15.27v7.01L0,45.83v-4.53L30.24,21.29v7.16Z"/><path class="e" d="M528.41,21.83l30.24,20.01v4.53l-30.24,20.01v-7.01l23.17-15.27-23.17-15.12v-7.16Z"/><path class="d" d="M76.88,44.11c0,13.95-7.25,22.83-18.48,22.83-6.79,0-11.77-3.17-14.76-9.51v8.42h-6.16V1.09h6.52V29.98c2.99-5.71,7.79-8.7,14.4-8.7,11.23,0,18.48,8.88,18.48,22.83Zm-6.7,0c0-10.42-4.8-16.85-12.68-16.85s-13.5,6.79-13.5,15.85v1.99c0,9.06,5.8,15.85,13.5,15.85s12.68-6.43,12.68-16.85Z"/><path class="d" d="M120.45,30.52l-5.43,3.08c-2.08-4.26-5.07-6.34-9.69-6.34-8.51,0-14.4,7.16-14.4,18.39v20.2h-6.52V22.37h6.16v9.51c2.99-7.34,8.42-10.6,15.31-10.6s11.68,2.9,14.58,9.24Z"/><path class="d" d="M162.84,37.23v28.62h-6.16v-8.33c-3.08,6.34-8.33,9.42-15.85,9.42-9.78,0-15.58-5.16-15.58-13.5s5.8-13.13,15.76-13.13h15.31v-2.26c0-7.25-3.62-10.78-11.14-10.78-5.71,0-10.42,2.08-13.41,5.98l-4.62-4.17c3.99-4.98,10.33-7.79,18.21-7.79,11.32,0,17.48,5.43,17.48,15.94Zm-6.52,8.7h-14.85c-6.07,0-9.51,2.72-9.51,7.52s3.44,7.52,9.42,7.52c8.6,0,14.58-6.07,14.95-15.04Z"/><path class="d" d="M206.86,36.05v29.8h-6.52v-29.08c0-6.25-2.81-9.51-8.33-9.51-7.61,0-13.41,6.97-13.41,15.85v22.73h-6.52V22.37h6.16v8.42c2.9-6.34,7.88-9.51,14.76-9.51,8.79,0,13.86,5.43,13.86,14.76Z"/><path class="e" d="M217.64,1.09h28.53V6.7h-22.01V73.73h22.01v5.62h-28.53V1.09Z"/><path class="e" d="M291.91,60.05v5.8h-38.22v-5.8h15.85V28.17h-14.04v-5.8h20.56V60.05h15.85Zm-25.81-54.25c0-3.26,2.54-5.8,5.8-5.8s5.8,2.54,5.8,5.8-2.54,5.8-5.8,5.8-5.8-2.54-5.8-5.8Z"/><path class="e" d="M327.42,79.34h-28.53v-5.62h22.01V6.7h-22.01V1.09h28.53V79.34Z"/><path class="d" d="M338.65,60.59c0-3.62,2.72-6.34,6.34-6.34s6.34,2.72,6.34,6.34-2.72,6.34-6.34,6.34-6.34-2.72-6.34-6.34Z"/><path class="d" d="M359.12,59.69l3.98-4.71c3.44,3.89,8.79,5.98,15.49,5.98,7.61,0,12.05-2.99,12.05-7.52,0-3.44-2.35-5.07-7.7-5.8l-9.33-1.27c-8.42-1.18-12.59-4.98-12.59-11.5,0-8.33,6.61-13.59,17.39-13.59,7.43,0,13.13,2.26,17.3,6.7l-4.08,4.62c-3.08-3.53-7.7-5.34-13.22-5.34-6.79,0-10.87,2.81-10.87,7.06,0,3.26,2.36,4.98,7.7,5.71l9.33,1.27c8.42,1.18,12.59,5.07,12.59,11.68,0,8.6-6.79,13.95-18.75,13.95-8.24,0-14.67-2.45-19.29-7.25Z"/><path class="d" d="M435.93,58.6c-3.35,5.25-8.97,8.33-15.94,8.33-9.24,0-14.31-5.25-14.31-14.76V6.88h-14.04V1.09h20.56V51.45c0,6.25,2.81,9.51,8.33,9.51,4.53,0,8.33-2.45,10.78-6.25l4.62,3.89Z"/><path class="d" d="M478.05,37.23v28.62h-6.16v-8.33c-3.08,6.34-8.33,9.42-15.85,9.42-9.78,0-15.58-5.16-15.58-13.5s5.8-13.13,15.76-13.13h15.31v-2.26c0-7.25-3.62-10.78-11.14-10.78-5.71,0-10.42,2.08-13.41,5.98l-4.62-4.17c3.99-4.98,10.33-7.79,18.21-7.79,11.32,0,17.48,5.43,17.48,15.94Zm-6.52,8.7h-14.85c-6.07,0-9.51,2.72-9.51,7.52s3.44,7.52,9.42,7.52c8.61,0,14.58-6.07,14.95-15.04Z"/><path class="d" d="M522.07,22.37l-16.3,43.48h-6.34l-16.3-43.48h6.97l12.68,34.42,12.68-34.42h6.61Z"/></g></g></g></svg>